<!-- icon666.com - MILLIONS vector ICONS FREE --><svg id="Capa_1" enable-background="new 0 0 512 512" viewBox="0 0 512 512" xmlns="http://www.w3.org/2000/svg"><g><path d="m478.32 129c-24.41 65.39-90.9 154.65-214.77 154.65-114.76 0-195.83-67.4-229.87-154.65 44.12-77.07 127.16-129 222.32-129s178.2 51.93 222.32 129z" fill="#abe334" style="fill: rgb(52, 111, 229);"></path><path d="m512 256c0 93.31-49.93 174.97-124.53 219.7h-262.94c-74.6-44.73-124.53-126.39-124.53-219.7 0-46.22 12.25-89.57 33.68-127 44.12 77.07 127.16 129 222.32 129s178.21-51.93 222.32-129c21.43 37.43 33.68 80.78 33.68 127z" fill="#56c126" style="fill: rgb(38, 112, 192);"></path><path d="m256 277.03 13.973 39.436-13.973 49.494h-23.31v-88.93z" fill="#fff" style="fill: rgb(90, 28, 28);"></path><path d="m256 277.03h23.31v88.93h-23.31z" fill="#bdddf9"></path><path d="m238.14 430.23-43.82 74.28c-24.9-6.15-48.36-15.96-69.79-28.81v-16.17c0-50.32 28.26-94.03 69.79-116.12z" fill="#fff" style="fill: rgb(90, 28, 28);"></path><g><path d="m256.014 81.013 75.06 121.832-75.06 102.404h-40.474c-2.468 0-4.914-.079-7.337-.236-39.42-2.547-73.298-25.465-91.191-58.333l-26.329-56.92 26.329-50.178c5.16-9.49 11.655-18.151 19.239-25.723 11.095-11.095 24.511-19.878 39.442-25.554 12.385-4.712 25.824-7.292 39.846-7.292z" fill="#fff" style="fill: rgb(90, 28, 28);"></path><path d="m394.982 246.22h.247c-5.194 9.681-11.779 18.498-19.486 26.194-18.678 18.678-43.918 30.793-71.952 32.599-2.423.157-4.869.236-7.337.236h-40.441v-224.236h40.441c14.034 0 27.462 2.58 39.846 7.292 25.308 9.625 46.229 28.146 58.928 51.737h-.247l32.79 52.859z" fill="#e0f8fc"></path><path d="m256.014 81.013 40.143 109.741-40.143 114.506h-40.474c-2.468 0-4.914-.09-7.337-.247l-32.51-216.708c12.385-4.712 25.812-7.292 39.846-7.292z" fill="#bdddf9"></path><path d="m336.301 88.305-32.51 216.708c-2.423.157-4.869.247-7.337.247h-40.441v-224.247h40.441c14.034 0 27.462 2.58 39.847 7.292z" fill="#94cfff"></path><path d="m215.54 125.47c-37.311 0-67.667 30.356-67.667 67.667s30.356 67.667 67.667 67.667h40.474l54.054-70.05-54.054-65.284z" fill="#3b2e8e"></path><path d="m364.121 193.137c0 37.311-30.356 67.667-67.667 67.667h-40.441v-135.334h40.441c37.312 0 67.667 30.356 67.667 67.667z" fill="#220f7c"></path><g><g><path d="m210.014 143.073h24.196v50.063h-24.196z" fill="#abe334" style="fill: rgb(52, 111, 229);"></path><path d="m277.786 143.073h24.196v50.063h-24.196z" fill="#56c126" style="fill: rgb(38, 112, 192);"></path></g><path d="m294.559 227.935c-3.938 4.14-8.548 7.64-13.641 10.332-7.438 3.949-15.896 6.181-24.904 6.159h-.101c-9.03-.034-17.522-2.322-24.949-6.327-5.082-2.737-9.67-6.26-13.585-10.433-6.249-6.641-1.357-17.579 7.763-17.545l30.861.101h.011l30.905.112c9.121.022 13.956 10.993 7.64 17.601z" fill="#abe334" style="fill: rgb(52, 111, 229);"></path></g></g><g><path d="m117.01 139.58v106.65c-9.59 0-18.58-2.57-26.33-7.04v-46.053-46.517c7.75-4.47 16.74-7.04 26.33-7.04z" fill="#bdddf9"></path></g><path d="m384.266 291.709h-82.283v-15.73h82.283c12.18 0 22.088-9.909 22.088-22.088v-36.639h15.73v36.639c0 20.853-16.965 37.818-37.818 37.818z" fill="#1a0664"></path><path d="m421.09 147 16.562 45.905-16.562 46.365c-7.62 4.39-16.45 6.91-25.86 6.96h-.24v-106.18h.24c9.41.05 18.24 2.57 25.86 6.95z" fill="#94cfff"></path><path d="m294.949 299.575h20.394c8.688 0 15.731-7.043 15.731-15.731 0-8.688-7.043-15.731-15.731-15.731h-20.394c-8.688 0-15.731 7.043-15.731 15.731.001 8.688 7.043 15.731 15.731 15.731z" fill="#220f7c"></path><path d="m90.68 146.62v92.57c-15.74-9.12-26.33-26.13-26.33-45.61v-1.34c0-19.49 10.59-36.51 26.33-45.62z" fill="#3b2e8e"></path><path d="m447.42 192.47v1.33c0 19.46-10.6 36.43-26.33 45.47v-92.27c15.73 9.04 26.33 26.01 26.33 45.47z" fill="#220f7c"></path><path d="m256 328.06 39.019 97.886-39.019 86.054c-21.27 0-41.93-2.59-61.68-7.49v-161.1c18.39-9.8 39.39-15.35 61.68-15.35z" fill="#bdddf9"></path><path d="m317.68 343.41 29.323 86.432-29.323 74.668c-19.75 4.9-40.41 7.49-61.68 7.49v-183.94c22.29 0 43.29 5.55 61.68 15.35z" fill="#94cfff"></path><path d="m387.47 459.53v16.17c-21.43 12.85-44.89 22.66-69.79 28.81v-161.1c41.53 22.09 69.79 65.8 69.79 116.12z" fill="#e0f8fc"></path><path d="m294.559 227.935c-3.938 4.14-8.548 7.64-13.641 10.332-7.438 3.949-15.896 6.181-24.904 6.159v-34.204l30.905.112c9.121.022 13.956 10.993 7.64 17.601z" fill="#56c126" style="fill: rgb(38, 112, 192);"></path></g></svg>