<?xml version="1.0" standalone="no"?>
<!DOCTYPE svg PUBLIC "-//W3C//DTD SVG 20010904//EN"
 "http://www.w3.org/TR/2001/REC-SVG-20010904/DTD/svg10.dtd">
<svg version="1.0" xmlns="http://www.w3.org/2000/svg"
 width="1024.000000pt" height="1024.000000pt" viewBox="0 0 1024.000000 1024.000000"
 preserveAspectRatio="xMidYMid meet">

<g transform="translate(0.000000,1024.000000) scale(0.100000,-0.100000)"
fill="#0000FF" stroke="none"> 
<path d="M0 5120 l0 -5120 5120 0 5120 0 0 5120 0 5120 -5120 0 -5120 0 0
-5120z m5550 3029 c264 -37 437 -81 630 -159 280 -113 436 -197 645 -347 234
-168 377 -295 534 -478 347 -404 577 -846 685 -1315 57 -252 68 -341 73 -615
6 -294 -7 -441 -63 -688 -98 -438 -274 -817 -563 -1207 -90 -122 -359 -399
-466 -480 -33 -25 -89 -68 -125 -96 -155 -121 -419 -267 -693 -383 -168 -72
-456 -144 -727 -182 -144 -21 -562 -18 -720 4 -363 52 -639 137 -965 297 -301
148 -555 328 -783 558 -353 356 -587 737 -735 1197 -103 321 -147 592 -147
915 0 507 109 947 349 1405 156 299 378 593 608 805 163 151 429 341 613 438
130 69 402 188 500 220 305 99 723 157 1035 145 61 -3 202 -18 315 -34z"
fill="#FFFC00"/> 
</g>
</svg>
